# xmcd CD database file
#
# Track frame offsets:
#	150
#	16190
#	34089
#	51952
#	65650
#	79236
#	107391
#	126866
#	142185
#	156718
#	173377
#
# Disc length: 2436 seconds
#
# Revision: 0
# Processed by: cddbd v1.5.2PL0 Copyright (c) Steve Scherf et al.
# Submitted via: CDex 2.06
#
DISCID=9309820b
DTITLE=T Bones - Long Time Coming
DYEAR=2014
DGENRE=Country
TTITLE0=Big Train
TTITLE1=Learn To Fall
TTITLE2=She Declined
TTITLE3=Get Yourself Around Here
TTITLE4=Get High
TTITLE5=Lead Me Blid
TTITLE6=Murray River
TTITLE7=Wondering Why
TTITLE8=Let Me Down Again
TTITLE9=Silver City Blues
TTITLE10=Fighting In The Pub
EXTD=YEAR: 2014
EXTT0=
EXTT1=
EXTT2=
EXTT3=
EXTT4=
EXTT5=
EXTT6=
EXTT7=
EXTT8=
EXTT9=
EXTT10=
PLAYORDER=
